%TF.GenerationSoftware,KiCad,Pcbnew,7.0.2*%
%TF.CreationDate,2023-07-17T10:45:44+03:00*%
%TF.ProjectId,DeskSandGlass,4465736b-5361-46e6-9447-6c6173732e6b,rev?*%
%TF.SameCoordinates,Original*%
%TF.FileFunction,Soldermask,Bot*%
%TF.FilePolarity,Negative*%
%FSLAX46Y46*%
G04 Gerber Fmt 4.6, Leading zero omitted, Abs format (unit mm)*
G04 Created by KiCad (PCBNEW 7.0.2) date 2023-07-17 10:45:44*
%MOMM*%
%LPD*%
G01*
G04 APERTURE LIST*
G04 Aperture macros list*
%AMRoundRect*
0 Rectangle with rounded corners*
0 $1 Rounding radius*
0 $2 $3 $4 $5 $6 $7 $8 $9 X,Y pos of 4 corners*
0 Add a 4 corners polygon primitive as box body*
4,1,4,$2,$3,$4,$5,$6,$7,$8,$9,$2,$3,0*
0 Add four circle primitives for the rounded corners*
1,1,$1+$1,$2,$3*
1,1,$1+$1,$4,$5*
1,1,$1+$1,$6,$7*
1,1,$1+$1,$8,$9*
0 Add four rect primitives between the rounded corners*
20,1,$1+$1,$2,$3,$4,$5,0*
20,1,$1+$1,$4,$5,$6,$7,0*
20,1,$1+$1,$6,$7,$8,$9,0*
20,1,$1+$1,$8,$9,$2,$3,0*%
G04 Aperture macros list end*
%ADD10R,1.700000X1.700000*%
%ADD11O,1.700000X1.700000*%
%ADD12C,0.800000*%
%ADD13C,6.400000*%
%ADD14R,1.378000X1.378000*%
%ADD15C,1.378000*%
%ADD16C,0.650000*%
%ADD17O,1.000000X2.100000*%
%ADD18O,1.000000X1.600000*%
%ADD19R,1.000000X1.000000*%
%ADD20O,1.000000X1.000000*%
%ADD21O,2.100000X1.000000*%
%ADD22O,1.600000X1.000000*%
%ADD23RoundRect,0.200000X0.200000X0.275000X-0.200000X0.275000X-0.200000X-0.275000X0.200000X-0.275000X0*%
%ADD24RoundRect,0.200000X-0.200000X-0.275000X0.200000X-0.275000X0.200000X0.275000X-0.200000X0.275000X0*%
%ADD25RoundRect,0.225000X-0.250000X0.225000X-0.250000X-0.225000X0.250000X-0.225000X0.250000X0.225000X0*%
%ADD26RoundRect,0.225000X-0.225000X-0.250000X0.225000X-0.250000X0.225000X0.250000X-0.225000X0.250000X0*%
%ADD27RoundRect,0.218750X0.218750X0.256250X-0.218750X0.256250X-0.218750X-0.256250X0.218750X-0.256250X0*%
%ADD28RoundRect,0.200000X0.275000X-0.200000X0.275000X0.200000X-0.275000X0.200000X-0.275000X-0.200000X0*%
%ADD29RoundRect,0.200000X-0.275000X0.200000X-0.275000X-0.200000X0.275000X-0.200000X0.275000X0.200000X0*%
G04 APERTURE END LIST*
D10*
%TO.C,LS1*%
X114360534Y-73670534D03*
D11*
X114360534Y-76210534D03*
%TD*%
D12*
%TO.C,REF\u002A\u002A*%
X179100000Y-138200000D03*
X179802944Y-136502944D03*
X179802944Y-139897056D03*
X181500000Y-135800000D03*
D13*
X181500000Y-138200000D03*
D12*
X181500000Y-140600000D03*
X183197056Y-136502944D03*
X183197056Y-139897056D03*
X183900000Y-138200000D03*
%TD*%
D14*
%TO.C,MK1*%
X121435534Y-49155534D03*
D15*
X118895534Y-49155534D03*
%TD*%
D16*
%TO.C,J1*%
X141450534Y-49495534D03*
X135670534Y-49495534D03*
D17*
X142880534Y-50025534D03*
D18*
X142880534Y-45845534D03*
D17*
X134240534Y-50025534D03*
D18*
X134240534Y-45845534D03*
%TD*%
D10*
%TO.C,J4*%
X116215534Y-140165534D03*
D11*
X118755534Y-140165534D03*
%TD*%
D19*
%TO.C,J3*%
X183615534Y-80735534D03*
D20*
X182345534Y-80735534D03*
X183615534Y-82005534D03*
X182345534Y-82005534D03*
X183615534Y-83275534D03*
X182345534Y-83275534D03*
X183615534Y-84545534D03*
X182345534Y-84545534D03*
X183615534Y-85815534D03*
X182345534Y-85815534D03*
%TD*%
D16*
%TO.C,J2*%
X181585534Y-71695534D03*
X181585534Y-65915534D03*
D21*
X181055534Y-73125534D03*
D22*
X185235534Y-73125534D03*
D21*
X181055534Y-64485534D03*
D22*
X185235534Y-64485534D03*
%TD*%
D12*
%TO.C,REF\u002A\u002A*%
X126600000Y-48600000D03*
X127302944Y-46902944D03*
X127302944Y-50297056D03*
X129000000Y-46200000D03*
D13*
X129000000Y-48600000D03*
D12*
X129000000Y-51000000D03*
X130697056Y-46902944D03*
X130697056Y-50297056D03*
X131400000Y-48600000D03*
%TD*%
D23*
%TO.C,R85*%
X176640534Y-53865534D03*
X174990534Y-53865534D03*
%TD*%
D24*
%TO.C,R86*%
X175000534Y-58535534D03*
X176650534Y-58535534D03*
%TD*%
D23*
%TO.C,R84*%
X176640534Y-52315534D03*
X174990534Y-52315534D03*
%TD*%
D25*
%TO.C,C28*%
X117345534Y-51230534D03*
X117345534Y-52780534D03*
%TD*%
%TO.C,C29*%
X122965534Y-51110534D03*
X122965534Y-52660534D03*
%TD*%
D26*
%TO.C,C54*%
X175050534Y-56975534D03*
X176600534Y-56975534D03*
%TD*%
D27*
%TO.C,L6*%
X180603034Y-60795534D03*
X179028034Y-60795534D03*
%TD*%
D28*
%TO.C,R55*%
X118905534Y-52825534D03*
X118905534Y-51175534D03*
%TD*%
D29*
%TO.C,R56*%
X121435534Y-51065534D03*
X121435534Y-52715534D03*
%TD*%
D26*
%TO.C,C55*%
X175040534Y-55405534D03*
X176590534Y-55405534D03*
%TD*%
M02*
