M48
; DRILL file {KiCad 7.0.2} date Mon Jul 17 10:45:47 2023
; FORMAT={-:-/ absolute / inch / decimal}
; #@! TF.CreationDate,2023-07-17T10:45:47+03:00
; #@! TF.GenerationSoftware,Kicad,Pcbnew,7.0.2
; #@! TF.FileFunction,Plated,1,2,PTH
FMAT,2
INCH
; #@! TA.AperFunction,Plated,PTH,ViaDrill
T1C0.0118
; #@! TA.AperFunction,Plated,PTH,ComponentDrill
T2C0.0197
; #@! TA.AperFunction,Plated,PTH,ComponentDrill
T3C0.0236
; #@! TA.AperFunction,Plated,PTH,ComponentDrill
T4C0.0276
; #@! TA.AperFunction,Plated,PTH,ComponentDrill
T5C0.0343
; #@! TA.AperFunction,Plated,PTH,ComponentDrill
T6C0.0394
; #@! TA.AperFunction,Plated,PTH,ComponentDrill
T7C0.1260
%
G90
G05
T1
X4.4419Y-2.4855
X4.4478Y-5.002
X4.4664Y-2.6402
X4.48Y-5.3207
X4.4921Y-4.0748
X4.545Y-5.3207
X4.5478Y-5.002
X4.5748Y-2.4351
X4.5748Y-2.4764
X4.5827Y-5.2311
X4.5906Y-5.2008
X4.6033Y-5.4547
X4.6117Y-4.5085
X4.622Y-2.4173
X4.6269Y-2.6014
X4.6407Y-2.6545
X4.6545Y-5.1437
X4.6614Y-2.5787
X4.6634Y-3.8081
X4.6856Y-4.5459
X4.689Y-5.2047
X4.689Y-5.2402
X4.689Y-2.6634
X4.6898Y-2.8522
X4.7244Y-5.2047
X4.7244Y-5.2402
X4.7323Y-4.0906
X4.7431Y-5.4537
X4.7441Y-5.3652
X4.7451Y-2.3799
X4.747Y-2.2785
X4.75Y-2.6634
X4.75Y-2.8522
X4.7529Y-5.0215
X4.7628Y-5.2884
X4.7664Y-2.4988
X4.7726Y-2.3661
X4.7746Y-2.3327
X4.7982Y-2.313
X4.8091Y-4.7685
X4.8101Y-2.6644
X4.8129Y-5.1445
X4.8181Y-5.2724
X4.8504Y-5.5181
X4.874Y-4.7685
X4.8752Y-4.9067
X4.878Y-4.5522
X4.8819Y-2.4134
X4.8868Y-2.6053
X4.9041Y-5.3274
X4.9045Y-5.5423
X4.9104Y-4.5699
X4.9315Y-2.6654
X4.9409Y-2.6148
X4.9925Y-2.6654
X4.9945Y-2.5217
X5.0Y-2.5984
X5.0Y-5.3632
X5.0236Y-5.3071
X5.0521Y-5.3839
X5.0864Y-5.1937
X5.0864Y-5.2587
X5.1348Y-2.8563
X5.1427Y-5.2923
X5.1437Y-5.2244
X5.1467Y-2.4232
X5.1476Y-2.3022
X5.1476Y-2.3622
X5.1486Y-2.1781
X5.1486Y-2.2402
X5.1575Y-2.6722
X5.1612Y-5.126
X5.1781Y-5.377
X5.1782Y-2.7008
X5.1791Y-5.4752
X5.2037Y-4.6496
X5.2195Y-2.6713
X5.2195Y-2.7008
X5.2234Y-5.2598
X5.2303Y-3.5807
X5.2303Y-3.9262
X5.2303Y-4.0965
X5.2303Y-4.1831
X5.2303Y-4.2677
X5.2303Y-4.3533
X5.2303Y-4.439
X5.2309Y-3.3231
X5.2309Y-4.6077
X5.2313Y-3.4094
X5.2313Y-3.6683
X5.2313Y-3.7539
X5.2313Y-3.8396
X5.2313Y-4.0118
X5.2313Y-4.5256
X5.2323Y-3.4951
X5.2736Y-4.6348
X5.2746Y-5.2303
X5.2756Y-5.2933
X5.2782Y-2.5364
X5.2992Y-5.126
X5.314Y-5.378
X5.314Y-5.503
X5.3159Y-4.1821
X5.3159Y-4.3533
X5.3159Y-4.439
X5.3159Y-4.5236
X5.3165Y-4.6095
X5.3165Y-3.3213
X5.3169Y-3.4075
X5.3169Y-3.4941
X5.3169Y-3.5807
X5.3169Y-3.6673
X5.3169Y-3.753
X5.3169Y-3.8386
X5.3169Y-3.9252
X5.3169Y-4.0108
X5.3169Y-4.0965
X5.3169Y-4.2677
X5.3282Y-2.564
X5.3484Y-2.9341
X5.3602Y-4.6348
X5.3602Y-5.2608
X5.3695Y-2.5353
X5.3706Y-2.5648
X5.3808Y-2.6911
X5.3957Y-2.6614
X5.4016Y-3.9252
X5.4021Y-4.6095
X5.4026Y-3.4075
X5.4026Y-3.4951
X5.4026Y-3.5807
X5.4026Y-3.6693
X5.4026Y-3.753
X5.4026Y-3.8396
X5.4026Y-4.0098
X5.4026Y-4.0965
X5.4026Y-4.1821
X5.4026Y-4.2677
X5.4026Y-4.3533
X5.4026Y-4.438
X5.4026Y-4.5236
X5.4031Y-3.322
X5.4252Y-2.6614
X5.435Y-5.378
X5.436Y-5.125
X5.436Y-5.5276
X5.4459Y-4.6339
X5.4872Y-3.753
X5.4872Y-4.0108
X5.4872Y-4.1831
X5.4877Y-4.6095
X5.4882Y-3.324
X5.4882Y-3.4085
X5.4882Y-3.4951
X5.4882Y-3.5797
X5.4882Y-3.6683
X5.4882Y-3.8396
X5.4882Y-3.9252
X5.4882Y-4.0955
X5.4882Y-4.2677
X5.4882Y-4.3533
X5.4882Y-4.437
X5.4892Y-4.5236
X5.4939Y-2.3303
X5.498Y-5.2598
X5.5276Y-2.7189
X5.5276Y-2.7583
X5.5276Y-2.7976
X5.5276Y-2.837
X5.5276Y-2.8764
X5.5315Y-2.9921
X5.5315Y-4.6339
X5.5669Y-2.7189
X5.5669Y-2.7583
X5.5669Y-2.7976
X5.5669Y-2.837
X5.5669Y-2.8764
X5.5719Y-4.0128
X5.5719Y-4.3533
X5.572Y-3.3232
X5.5728Y-3.4075
X5.5728Y-3.4951
X5.5728Y-3.5807
X5.5728Y-3.7539
X5.5728Y-3.8396
X5.5728Y-3.9252
X5.5728Y-4.1831
X5.5728Y-4.2667
X5.5728Y-4.437
X5.5728Y-4.5246
X5.5734Y-4.6095
X5.5738Y-3.6683
X5.5738Y-4.0965
X5.5738Y-5.126
X5.5797Y-5.378
X5.5807Y-5.5522
X5.5886Y-2.5522
X5.5906Y-2.0856
X5.6063Y-2.7189
X5.6063Y-2.7583
X5.6063Y-2.7976
X5.6063Y-2.837
X5.6063Y-2.8764
X5.6171Y-4.6329
X5.6348Y-5.2598
X5.6457Y-2.7189
X5.6457Y-2.7583
X5.6457Y-2.7976
X5.6457Y-2.837
X5.6457Y-2.8764
X5.6575Y-3.5807
X5.6575Y-3.753
X5.6575Y-3.9252
X5.6575Y-4.0108
X5.6585Y-3.4951
X5.6585Y-3.6673
X5.6585Y-3.8376
X5.6585Y-4.0965
X5.6585Y-4.1821
X5.659Y-4.6095
X5.6594Y-3.322
X5.6594Y-3.4085
X5.6594Y-4.2667
X5.6594Y-4.3533
X5.6594Y-4.437
X5.6594Y-4.5256
X5.6732Y-5.378
X5.6742Y-5.5778
X5.685Y-2.7189
X5.685Y-2.7583
X5.685Y-2.7976
X5.685Y-2.837
X5.685Y-2.8764
X5.7018Y-4.6319
X5.7096Y-5.126
X5.7244Y-1.7638
X5.7244Y-1.7913
X5.7244Y-1.8189
X5.7244Y-1.8465
X5.7244Y-1.878
X5.7244Y-1.9055
X5.7244Y-1.9331
X5.7274Y-2.5964
X5.7368Y-2.5108
X5.7431Y-3.4085
X5.7431Y-3.4951
X5.7431Y-3.6673
X5.7431Y-3.753
X5.7431Y-4.0098
X5.7431Y-4.0965
X5.7431Y-4.1811
X5.7431Y-4.3514
X5.7431Y-4.437
X5.7431Y-4.5246
X5.7436Y-4.6095
X5.7441Y-3.3228
X5.7441Y-3.8386
X5.7441Y-4.2667
X5.7451Y-3.5807
X5.7451Y-3.9232
X5.7455Y-2.6197
X5.752Y-1.9331
X5.7726Y-5.2608
X5.7785Y-2.6457
X5.7795Y-1.9331
X5.7874Y-4.6319
X5.7923Y-2.6722
X5.7982Y-2.511
X5.8071Y-1.9331
X5.8283Y-4.6095
X5.8287Y-3.4085
X5.8287Y-3.4951
X5.8287Y-3.5807
X5.8287Y-3.753
X5.8287Y-3.8396
X5.8287Y-3.9252
X5.8287Y-4.0098
X5.8287Y-4.0965
X5.8287Y-4.1821
X5.8287Y-4.2667
X5.8287Y-4.3514
X5.8287Y-4.5246
X5.8295Y-3.3228
X5.8297Y-3.6673
X5.8297Y-4.437
X5.8327Y-2.9843
X5.8346Y-1.9331
X5.8474Y-5.126
X5.8585Y-2.6963
X5.8587Y-2.838
X5.8622Y-1.9331
X5.8715Y-3.0634
X5.872Y-4.6319
X5.8878Y-2.4075
X5.8898Y-1.9331
X5.9057Y-2.7668
X5.9085Y-3.0059
X5.9093Y-5.1943
X5.9144Y-3.4075
X5.9144Y-3.4961
X5.9144Y-3.6683
X5.9144Y-4.0098
X5.9144Y-4.439
X5.9144Y-4.5246
X5.9149Y-4.6095
X5.9154Y-3.3228
X5.9154Y-3.5807
X5.9154Y-3.753
X5.9154Y-3.8406
X5.9154Y-4.0955
X5.9154Y-4.1821
X5.9154Y-4.2667
X5.9154Y-4.3533
X5.9163Y-3.9242
X5.9173Y-1.9331
X5.9449Y-1.9331
X5.9577Y-4.6329
X5.9724Y-1.9331
X5.9852Y-5.126
X6.0Y-1.9331
X6.0Y-4.3533
X6.0Y-4.5256
X6.0005Y-4.6095
X6.001Y-3.6673
X6.001Y-3.8406
X6.001Y-4.0098
X6.001Y-4.0955
X6.001Y-4.1821
X6.001Y-4.2677
X6.001Y-4.438
X6.002Y-3.4085
X6.002Y-3.4951
X6.002Y-3.5807
X6.002Y-3.753
X6.0024Y-3.3232
X6.003Y-3.9262
X6.0118Y-2.3622
X6.0118Y-2.3898
X6.0276Y-1.9331
X6.0276Y-1.9606
X6.0276Y-1.9882
X6.0276Y-2.0157
X6.0394Y-2.3622
X6.0394Y-2.3898
X6.0394Y-2.4173
X6.0412Y-2.6949
X6.0433Y-4.6329
X6.0472Y-5.2598
X6.0551Y-1.9331
X6.0551Y-1.9606
X6.0551Y-1.9882
X6.0551Y-2.0157
X6.0581Y-5.3484
X6.065Y-5.4016
X6.0669Y-2.3622
X6.0669Y-2.3898
X6.0856Y-4.5236
X6.0866Y-3.4951
X6.0866Y-3.5807
X6.0866Y-3.6663
X6.0866Y-3.753
X6.0866Y-4.0108
X6.0866Y-4.0955
X6.0866Y-4.3533
X6.0866Y-4.438
X6.0872Y-4.6095
X6.0876Y-3.4094
X6.0876Y-3.8396
X6.0876Y-3.9262
X6.0876Y-4.1821
X6.0876Y-4.2667
X6.0878Y-3.322
X6.0965Y-5.4024
X6.0965Y-5.5787
X6.0984Y-2.3268
X6.0994Y-3.1713
X6.1142Y-5.1821
X6.122Y-5.126
X6.126Y-5.4024
X6.126Y-5.5827
X6.1299Y-4.6329
X6.1417Y-1.9331
X6.1417Y-1.9606
X6.1417Y-1.9882
X6.1417Y-2.0157
X6.1516Y-3.0823
X6.1555Y-3.1988
X6.1634Y-3.1476
X6.1693Y-1.9331
X6.1693Y-1.9606
X6.1693Y-1.9882
X6.1693Y-2.0157
X6.1713Y-3.6663
X6.1713Y-3.752
X6.1713Y-4.1821
X6.1713Y-4.5236
X6.1718Y-4.6095
X6.1722Y-3.4094
X6.1722Y-3.4951
X6.1722Y-3.8406
X6.1722Y-3.9262
X6.1722Y-4.0108
X6.1722Y-4.0955
X6.1722Y-4.3524
X6.1722Y-4.438
X6.1728Y-3.3232
X6.1732Y-3.5807
X6.1732Y-4.2677
X6.185Y-5.2598
X6.2037Y-2.9469
X6.2146Y-3.0039
X6.2146Y-4.6309
X6.2205Y-5.1654
X6.2313Y-3.2195
X6.2354Y-3.1693
X6.2411Y-5.4024
X6.2411Y-5.5531
X6.2559Y-3.4941
X6.2559Y-4.5236
X6.2569Y-3.4085
X6.2569Y-3.6673
X6.2569Y-3.8396
X6.2569Y-3.9262
X6.2569Y-4.0108
X6.2569Y-4.0945
X6.2569Y-4.2677
X6.2569Y-4.3524
X6.2569Y-4.438
X6.2571Y-3.3228
X6.2574Y-4.6095
X6.2579Y-3.5817
X6.2579Y-3.753
X6.2579Y-4.1811
X6.2608Y-5.126
X6.2756Y-1.9331
X6.3002Y-4.6339
X6.3031Y-1.9331
X6.3228Y-3.0837
X6.3238Y-5.2598
X6.3307Y-1.9331
X6.3406Y-3.4931
X6.3406Y-3.5807
X6.3406Y-3.8396
X6.3406Y-3.9252
X6.3406Y-4.1811
X6.3406Y-4.5236
X6.3411Y-3.3231
X6.3415Y-2.2726
X6.3415Y-3.4085
X6.3415Y-3.6673
X6.3415Y-3.7539
X6.3415Y-4.0108
X6.3415Y-4.0965
X6.3425Y-4.3524
X6.3425Y-4.439
X6.3435Y-4.2677
X6.3445Y-4.6098
X6.3533Y-2.5463
X6.3583Y-1.9331
X6.3602Y-2.242
X6.3711Y-5.5285
X6.372Y-5.4024
X6.3858Y-4.6319
X6.3891Y-2.1834
X6.3898Y-1.9331
X6.3898Y-2.4016
X6.3976Y-5.126
X6.4173Y-1.9331
X6.4252Y-4.1821
X6.4262Y-4.0108
X6.4262Y-4.3524
X6.4267Y-4.6095
X6.4272Y-3.4085
X6.4272Y-3.4941
X6.4272Y-3.5807
X6.4272Y-3.6663
X6.4272Y-3.753
X6.4272Y-3.8396
X6.4272Y-3.9262
X6.4272Y-4.0955
X6.4272Y-4.2697
X6.4272Y-4.438
X6.4272Y-4.5246
X6.4283Y-3.3228
X6.4596Y-5.2598
X6.4764Y-2.3937
X6.4931Y-3.753
X6.4951Y-4.6319
X6.4961Y-3.4104
X6.4961Y-4.3533
X6.4961Y-4.439
X6.4961Y-4.5236
X6.497Y-3.4941
X6.497Y-3.5817
X6.497Y-3.8386
X6.497Y-3.9242
X6.497Y-4.0108
X6.497Y-4.0965
X6.497Y-4.1821
X6.497Y-4.2677
X6.498Y-3.6683
X6.501Y-3.3238
X6.5039Y-1.937
X6.5079Y-2.3622
X6.5079Y-2.3937
X6.5128Y-5.4024
X6.5128Y-5.503
X6.5138Y-2.2745
X6.5217Y-2.2264
X6.5315Y-1.937
X6.5344Y-5.126
X6.5512Y-2.2238
X6.5591Y-1.937
X6.5719Y-2.248
X6.5866Y-1.937
X6.5974Y-5.2589
X6.6142Y-1.937
X6.6417Y-1.937
X6.6516Y-5.4754
X6.6526Y-5.4024
X6.6693Y-1.937
X6.6713Y-5.126
X6.685Y-2.1791
X6.6929Y-2.1111
X6.6969Y-1.937
X6.7234Y-2.1524
X6.7244Y-1.937
X6.7352Y-5.2598
X6.7421Y-2.1111
X6.752Y-1.937
X6.7726Y-2.7431
X6.7726Y-2.7923
X6.7795Y-1.937
X6.7835Y-1.7638
X6.7835Y-1.7913
X6.7835Y-1.8189
X6.7835Y-1.9094
X6.7923Y-5.4024
X6.7923Y-5.4528
X6.81Y-5.126
X6.8179Y-4.627
X6.8189Y-3.253
X6.8189Y-3.3917
X6.8189Y-3.6654
X6.8189Y-3.8041
X6.8189Y-4.2146
X6.8189Y-4.3514
X6.8189Y-4.4882
X6.8189Y-4.7648
X6.8189Y-4.9026
X6.8199Y-3.1161
X6.8199Y-3.5285
X6.8199Y-3.9419
X6.8199Y-4.0768
X6.8205Y-2.8364
X6.8209Y-2.7667
X6.8209Y-2.9783
X6.827Y-1.8675
X6.8524Y-2.6555
X6.8622Y-3.2795
X6.873Y-5.2598
X6.8878Y-2.3041
X6.8894Y-2.0597
X6.8894Y-2.1207
X6.8914Y-2.1813
X6.9518Y-3.878
X6.9518Y-4.2894
X6.9518Y-4.4252
X6.9518Y-4.7018
X6.9528Y-3.189
X6.9528Y-3.3278
X6.9528Y-3.4656
X6.9528Y-3.6043
X6.9528Y-3.7411
X6.9528Y-4.0177
X6.9528Y-4.1545
X6.9528Y-4.565
X6.9528Y-4.8386
X6.9528Y-4.9783
X6.9537Y-3.0512
X6.9539Y-2.912
X7.0069Y-2.2431
X7.1339Y-3.5354
X7.1339Y-3.8701
X7.1545Y-3.1339
X7.2028Y-3.1339
X7.2049Y-1.8203
X7.2049Y-2.4463
X7.2116Y-3.9173
X7.2441Y-3.4724
X7.2575Y-4.0787
X7.2706Y-3.5702
X7.2835Y-4.063
T2
X4.9843Y-1.9134
X5.0119Y-1.8466
X5.0119Y-1.9802
X5.0787Y-1.8189
X5.0787Y-2.0079
X5.1456Y-1.8466
X5.1456Y-1.9802
X5.1732Y-1.9134
X7.0512Y-5.4409
X7.0789Y-5.3741
X7.0789Y-5.5078
X7.1457Y-5.3465
X7.1457Y-5.5354
X7.2125Y-5.3741
X7.2125Y-5.5078
X7.2402Y-5.4409
T4
X7.179Y-3.1786
X7.179Y-3.2286
X7.179Y-3.2786
X7.179Y-3.3286
X7.179Y-3.3786
X7.229Y-3.1786
X7.229Y-3.2286
X7.229Y-3.2786
X7.229Y-3.3286
X7.229Y-3.3786
T5
X4.6809Y-1.9353
X4.7809Y-1.9353
T6
X4.5024Y-2.9004
X4.5024Y-3.0004
X4.5754Y-5.5183
X4.6754Y-5.5183
T7
X5.0787Y-1.9134
X7.1457Y-5.4409
T3
G00X5.2851Y-1.8168
M15
G01X5.2851Y-1.7931
M16
G05
G00X5.2851Y-1.9912
M15
G01X5.2851Y-1.9479
M16
G05
G00X5.6252Y-1.8168
M15
G01X5.6252Y-1.7931
M16
G05
G00X5.6252Y-1.9912
M15
G01X5.6252Y-1.9479
M16
G05
G00X7.1065Y-2.5388
M15
G01X7.1498Y-2.5388
M16
G05
G00X7.1065Y-2.879
M15
G01X7.1498Y-2.879
M16
G05
G00X7.2809Y-2.5388
M15
G01X7.3045Y-2.5388
M16
G05
G00X7.2809Y-2.879
M15
G01X7.3045Y-2.879
M16
G05
T0
M30
